<?xml version="1.0" standalone="no"?><!DOCTYPE svg PUBLIC "-//W3C//DTD SVG 1.1//EN" "http://www.w3.org/Graphics/SVG/1.1/DTD/svg11.dtd"><svg t="1626166788939" class="icon" viewBox="0 0 1026 1024" version="1.1" xmlns="http://www.w3.org/2000/svg" p-id="8726" xmlns:xlink="http://www.w3.org/1999/xlink" width="200.390625" height="200"><defs><style type="text/css"></style></defs><path d="M512 0C229.180952 0 0 229.180952 0 512s229.180952 512 512 512 512-229.180952 512-512S792.380952 0 512 0z m0 926.47619c-229.180952 0-414.47619-185.295238-414.47619-414.47619S282.819048 97.52381 512 97.52381s414.47619 185.295238 414.47619 414.47619-185.295238 414.47619-414.47619 414.47619z" fill="#1296db" p-id="8727"></path><path d="M643.657143 580.266667L536.380952 502.247619v-199.923809c0-26.819048-21.942857-48.761905-48.761904-48.761905s-48.761905 21.942857-48.761905 48.761905v224.304761c0 17.066667 7.314286 31.695238 21.942857 39.009524l129.219048 90.209524c7.314286 4.87619 17.066667 9.752381 26.819047 9.752381 14.628571 0 31.695238-7.314286 39.009524-21.942857 17.066667-19.504762 9.752381-48.761905-12.190476-63.390476z" fill="#1296db" p-id="8728"></path></svg>